<svg width="160px" height="53px" viewBox="0 0 160 53" version="1.1" xmlns="http://www.w3.org/2000/svg" xmlns:xlink="http://www.w3.org/1999/xlink">
    <g id="RinseLogo" fill="#000000" fill-rule="nonzero">
        <path d="M64.8871429,8.00888889 C64.885028,9.92306696 64.1173433,11.7568729 62.7551506,13.1016827 C61.3929579,14.4464924 59.5494442,15.1905633 57.6353968,15.1680952 C53.6287254,15.2011888 50.3402231,12.0064294 50.2574603,8.00047619 C50.2573282,6.08707039 51.0231369,4.25323209 52.3839988,2.90817575 C53.7448607,1.56311941 55.58752,0.818785632 57.5007937,0.841269841 C61.50708,0.812651372 64.7953554,4.00355187 64.8871429,8.00888889 Z M64.2393651,16.1019048 L48.7936508,16.1019048 L43.8469841,43.46 L59.3095238,43.46 L64.2393651,16.1019048 Z M126.291429,26.331746 L128.142222,16.1187302 L104.216508,16.1187302 L98.4285714,23.0255556 L97.797619,26.5504762 L103.383651,33.2806349 L96.5777778,33.2806349 L94.701746,43.4684127 L118.619048,43.4684127 L124.415397,36.5531746 L125.046349,33.0955556 L119.401429,26.3653968 L126.291429,26.331746 Z M91.3871429,16.1103175 L65.6190476,16.1103175 L60.6807937,43.46 L76.1433333,43.46 L80.282381,20.5269841 L81.1236508,20.5269841 C81.3792362,20.5218085 81.6233092,20.6331273 81.7869645,20.8295137 C81.9506199,21.0259001 82.0161006,21.2860457 81.9649206,21.5365079 L78.0025397,43.4684127 L93.4650794,43.4684127 L97.1498413,23.0255556 L91.3871429,16.1103175 Z M21.7552381,16.1103175 L18.0788889,36.5531746 L31.4803175,52.6214286 L42.4168254,43.5104762 L36.5279365,36.5531746 L43.6450794,36.5531746 L47.3214286,16.1103175 L21.7552381,16.1103175 Z M4.92984127,16.1103175 L0,43.4515873 L15.4625397,43.4515873 L20.392381,16.1019048 L4.92984127,16.1103175 Z M156.164921,36.57 L141.459524,36.57 L147.281111,43.4852381 L131.515714,43.4852381 L125.753016,36.57 L129.429365,16.1271429 L159.84127,16.1271429 L156.164921,36.57 Z M145.320952,20.5438095 L144.698413,20.5438095 C144.120923,20.5926691 143.634568,20.9951697 143.478571,21.5533333 L141.409048,33.2638095 L143.041111,33.2638095 L145.320952,20.5438095 Z" id="Shape"></path>
    </g>
</svg>